<svg width="116" height="116" viewBox="0 0 116 116" fill="none" xmlns="http://www.w3.org/2000/svg">
<rect width="116" height="116" fill="#1B1B1B"/>
<path d="M21.125 89.4766C21.125 90.1901 20.9609 90.8229 20.6328 91.375C20.3099 91.9219 19.849 92.3516 19.25 92.6641C18.651 92.9714 17.9375 93.125 17.1094 93.125H14.375V97H12.0703V85.9922H17.0156C18.3333 85.9922 19.3464 86.2969 20.0547 86.9062C20.7682 87.5104 21.125 88.3672 21.125 89.4766ZM18.8047 89.5156C18.8047 88.3594 18.1224 87.7812 16.7578 87.7812H14.375V91.3516H16.8203C17.4557 91.3516 17.9453 91.1953 18.2891 90.8828C18.6328 90.5651 18.8047 90.1094 18.8047 89.5156ZM30.9531 95.2188V97H22.7422V85.9922H25.0469V95.2188H30.9531ZM35.1328 94.1875L34.1562 97H31.8516L35.8672 85.9922H38.5859L42.5859 97H40.3047L39.3281 94.1875H35.1328ZM37.2266 87.6875C37.1745 87.8958 37.1016 88.1458 37.0078 88.4375C36.9141 88.7292 36.8464 88.9349 36.8047 89.0547L35.6484 92.4531H38.8125L37.625 88.9844C37.5521 88.7708 37.4844 88.5547 37.4219 88.3359C37.3594 88.1172 37.2943 87.901 37.2266 87.6875ZM48.0391 92.4844V97H45.7422V92.4844L41.8203 85.9922H44.2344L46.875 90.6484L49.5469 85.9922H51.9609L48.0391 92.4844ZM61.5 95.2188V97H53.2891V85.9922H55.5938V95.2188H61.5ZM65.375 85.9922V97H63.0703V85.9922H65.375ZM76.5 93.8281C76.5 94.9062 76.099 95.7318 75.2969 96.3047C74.5 96.8724 73.3281 97.1562 71.7812 97.1562C68.9948 97.1562 67.3724 96.1484 66.9141 94.1328L69.1406 93.7656C69.2917 94.349 69.5859 94.7734 70.0234 95.0391C70.4609 95.2995 71.0677 95.4297 71.8438 95.4297C72.651 95.4297 73.2552 95.3073 73.6562 95.0625C74.0573 94.8177 74.2578 94.4505 74.2578 93.9609C74.2578 93.6484 74.1667 93.3906 73.9844 93.1875C73.8021 92.9844 73.5417 92.8151 73.2031 92.6797C73.0365 92.612 72.7917 92.5391 72.4688 92.4609C72.1458 92.3776 71.7448 92.2865 71.2656 92.1875C70.7135 92.0573 70.2812 91.9479 69.9688 91.8594C69.6562 91.7656 69.4062 91.6771 69.2188 91.5938C69.0312 91.5052 68.849 91.4089 68.6719 91.3047C68.2812 91.0703 67.9766 90.7578 67.7578 90.3672C67.5391 89.9766 67.4297 89.4896 67.4297 88.9062C67.4297 87.9115 67.8021 87.151 68.5469 86.625C69.2969 86.0938 70.3854 85.8281 71.8125 85.8281C73.1771 85.8281 74.2005 86.0417 74.8828 86.4688C75.5703 86.8958 76.013 87.6016 76.2109 88.5859L73.9766 88.8906C73.862 88.4167 73.6276 88.0599 73.2734 87.8203C72.9245 87.5807 72.4219 87.4609 71.7656 87.4609C71.0677 87.4609 70.5443 87.5703 70.1953 87.7891C69.8464 88.0078 69.6719 88.3359 69.6719 88.7734C69.6719 89.0599 69.7448 89.2943 69.8906 89.4766C70.0417 89.6589 70.263 89.8151 70.5547 89.9453C70.8307 90.0703 71.4219 90.2292 72.3281 90.4219C72.8542 90.5365 73.3073 90.6458 73.6875 90.75C74.0677 90.849 74.3724 90.9453 74.6016 91.0391C74.8307 91.138 75.0339 91.2422 75.2109 91.3516C75.3932 91.4609 75.5495 91.5781 75.6797 91.7031C75.9453 91.9583 76.1484 92.263 76.2891 92.6172C76.4297 92.9661 76.5 93.3698 76.5 93.8281ZM83.1641 87.7734V97H80.8594V87.7734H77.3047V85.9922H86.7266V87.7734H83.1641ZM88.4688 94.6172V97H86.2109V94.6172H88.4688Z" fill="#484848"/>
<path d="M90.5541 97.528C90.3621 97.4213 90.2555 97.304 90.2341 97.176C90.2235 97.048 90.2981 96.824 90.4581 96.504C90.6181 96.184 90.8688 95.688 91.2101 95.016C91.4661 94.536 91.6368 94.1627 91.7221 93.896C91.8181 93.6187 91.8715 93.4213 91.8821 93.304C91.8928 93.1867 91.8981 93.112 91.8981 93.08C91.8768 92.984 91.8875 92.9093 91.9301 92.856C91.9728 92.792 92.0421 92.7387 92.1381 92.696C92.1915 92.6427 92.3141 92.5467 92.5061 92.408C92.6981 92.2693 92.8475 92.104 92.9541 91.912C93.0501 91.688 93.1568 91.4587 93.2741 91.224C93.4021 90.9893 93.5675 90.696 93.7701 90.344C93.9728 89.9813 94.2448 89.512 94.5861 88.936C94.7995 88.5627 95.0501 88.1413 95.3381 87.672C95.6368 87.2027 95.9301 86.776 96.2181 86.392C96.3355 86.2427 96.4581 86.1253 96.5861 86.04C96.7141 85.9547 96.8261 85.912 96.9221 85.912C97.1568 85.912 97.3915 85.976 97.6261 86.104C97.8608 86.2213 98.0688 86.3707 98.2501 86.552C98.4315 86.7333 98.5541 86.904 98.6181 87.064C98.6715 87.1493 98.6928 87.3307 98.6821 87.608C98.6715 87.8853 98.6501 88.2213 98.6181 88.616C98.5861 89.0107 98.5488 89.432 98.5061 89.88C98.4741 90.3173 98.4261 90.8347 98.3621 91.432C98.2981 92.0293 98.2341 92.6533 98.1701 93.304C98.1168 93.9547 98.0741 94.584 98.0421 95.192C98.0101 95.7893 98.0101 96.312 98.0421 96.76C98.0528 96.856 98.0528 96.9467 98.0421 97.032C98.0315 97.1173 98.0261 97.1867 98.0261 97.24C97.9621 97.304 97.8235 97.3307 97.6101 97.32C97.3968 97.32 97.1888 97.288 96.9861 97.224C96.7835 97.16 96.6715 97.08 96.6501 96.984C96.6181 96.952 96.5968 96.9253 96.5861 96.904C96.5755 96.8827 96.5755 96.7813 96.5861 96.6C96.5968 96.408 96.6128 96.0613 96.6341 95.56L96.7141 93.112L96.5061 93.128C96.4101 93.128 96.2341 93.1387 95.9781 93.16C95.7328 93.1813 95.4608 93.2133 95.1621 93.256C94.8741 93.288 94.6075 93.3253 94.3621 93.368C94.1168 93.4 93.9461 93.432 93.8501 93.464C93.7541 93.464 93.6368 93.528 93.4981 93.656C93.3701 93.784 93.2475 93.9493 93.1301 94.152C93.0875 94.3013 93.0075 94.4613 92.8901 94.632C92.7835 94.792 92.7301 94.8987 92.7301 94.952C92.6555 95.0053 92.5915 95.0693 92.5381 95.144C92.4955 95.2187 92.4741 95.256 92.4741 95.256C92.4741 95.32 92.4261 95.48 92.3301 95.736C92.2341 95.9813 92.1168 96.2587 91.9781 96.568C91.8395 96.8667 91.6955 97.128 91.5461 97.352L91.1141 97.96L90.5541 97.528ZM94.3781 92.024C94.3781 92.024 94.4368 92.0133 94.5541 91.992C94.6715 91.9707 94.8101 91.9493 94.9701 91.928C95.1408 91.896 95.2901 91.88 95.4181 91.88C95.6635 91.816 95.8661 91.768 96.0261 91.736C96.1968 91.704 96.3355 91.688 96.4421 91.688C96.5488 91.6773 96.6341 91.688 96.6981 91.72C96.7408 91.7733 96.7781 91.8053 96.8101 91.816C96.8528 91.8267 96.8741 91.832 96.8741 91.832C96.8848 91.8107 96.9061 91.6987 96.9381 91.496C96.9701 91.2933 97.0075 91.0427 97.0501 90.744C97.0928 90.4453 97.1355 90.136 97.1781 89.816C97.2208 89.4853 97.2581 89.1813 97.2901 88.904C97.3221 88.616 97.3435 88.392 97.3541 88.232C97.3648 88.0293 97.3595 87.848 97.3381 87.688C97.3168 87.5173 97.3061 87.432 97.3061 87.432C97.2421 87.432 97.1195 87.5493 96.9381 87.784C96.7675 88.008 96.5648 88.312 96.3301 88.696C96.1061 89.0693 95.8821 89.4747 95.6581 89.912C95.5515 90.1147 95.4501 90.2747 95.3541 90.392C95.2688 90.5093 95.1995 90.568 95.1461 90.568C95.1248 90.5893 95.0661 90.6747 94.9701 90.824C94.8848 90.9627 94.7888 91.1227 94.6821 91.304C94.5861 91.4747 94.5008 91.6347 94.4261 91.784C94.3621 91.9227 94.3461 92.0027 94.3781 92.024ZM100.55 98.088C100.465 97.9813 100.331 97.9173 100.15 97.896C99.9687 97.8747 99.6913 97.88 99.318 97.912C99.1687 97.9333 99.014 97.9227 98.854 97.88C98.694 97.8373 98.5607 97.7733 98.454 97.688C98.3473 97.6027 98.3047 97.512 98.326 97.416C98.3367 97.288 98.4593 97.1493 98.694 97C98.9393 96.84 99.2913 96.7493 99.75 96.728L100.438 96.68L100.598 96.344C100.63 96.2267 100.673 96.0613 100.726 95.848C100.79 95.6347 100.854 95.4053 100.918 95.16C100.961 95.0107 101.019 94.792 101.094 94.504C101.179 94.216 101.27 93.912 101.366 93.592C101.462 93.272 101.547 92.984 101.622 92.728C101.697 92.472 101.739 92.296 101.75 92.2C101.793 92.104 101.851 91.928 101.926 91.672C102.001 91.416 102.075 91.1547 102.15 90.888C102.225 90.6107 102.273 90.4187 102.294 90.312C102.539 89.4587 102.699 88.8613 102.774 88.52C102.849 88.168 102.865 87.992 102.822 87.992C102.779 87.992 102.678 87.9973 102.518 88.008C102.358 88.0187 102.177 88.04 101.974 88.072C101.782 88.0933 101.611 88.12 101.462 88.152C101.313 88.1733 101.227 88.1947 101.206 88.216C101.153 88.2907 101.062 88.296 100.934 88.232C100.806 88.168 100.721 88.0827 100.678 87.976C100.667 87.88 100.662 87.7627 100.662 87.624C100.673 87.4853 100.699 87.4 100.742 87.368C100.817 87.304 100.977 87.2347 101.222 87.16C101.478 87.0853 101.761 87.016 102.07 86.952C102.379 86.8773 102.657 86.8187 102.902 86.776C103.083 86.7547 103.265 86.712 103.446 86.648C103.627 86.5733 103.766 86.4933 103.862 86.408C103.958 86.3653 104.049 86.3333 104.134 86.312C104.23 86.2907 104.326 86.2853 104.422 86.296C104.507 86.3387 104.651 86.36 104.854 86.36C105.067 86.3493 105.291 86.3333 105.526 86.312C106.123 86.2373 106.529 86.2267 106.742 86.28C106.955 86.3227 107.099 86.4667 107.174 86.712C107.227 86.904 107.238 87.0693 107.206 87.208C107.185 87.336 107.083 87.3947 106.902 87.384C106.806 87.416 106.63 87.4427 106.374 87.464C106.129 87.4853 105.867 87.5067 105.59 87.528C105.227 87.5707 104.971 87.6187 104.822 87.672C104.683 87.7147 104.603 87.7573 104.582 87.8C104.539 87.8427 104.502 87.8853 104.47 87.928C104.449 87.9707 104.417 88.0187 104.374 88.072C104.395 88.1147 104.379 88.2427 104.326 88.456C104.273 88.6693 104.209 88.8987 104.134 89.144C104.091 89.2827 104.027 89.4907 103.942 89.768C103.857 90.0347 103.766 90.3173 103.67 90.616C103.585 90.9147 103.505 91.1867 103.43 91.432C103.355 91.6667 103.302 91.8213 103.27 91.896C103.238 91.992 103.206 92.0987 103.174 92.216C103.153 92.3227 103.142 92.4027 103.142 92.456C102.971 93.1493 102.817 93.736 102.678 94.216C102.55 94.6853 102.433 95.1067 102.326 95.48C102.23 95.8427 102.134 96.2213 102.038 96.616C102.038 96.616 102.166 96.6107 102.422 96.6C102.689 96.5787 102.961 96.5467 103.238 96.504C103.611 96.4507 103.883 96.424 104.054 96.424C104.235 96.424 104.353 96.4453 104.406 96.488C104.47 96.52 104.502 96.568 104.502 96.632C104.513 96.6853 104.534 96.7493 104.566 96.824C104.79 97.1013 104.822 97.304 104.662 97.432C104.513 97.56 104.139 97.6347 103.542 97.656C102.987 97.6987 102.55 97.7307 102.23 97.752C101.921 97.784 101.697 97.816 101.558 97.848C101.43 97.88 101.361 97.9333 101.35 98.008C101.35 98.0613 101.307 98.12 101.222 98.184C101.137 98.2587 101.03 98.296 100.902 98.296C100.785 98.296 100.667 98.2267 100.55 98.088Z" fill="#1DB954"/>
<g filter="url(#filter0_d_183_2)">
<path d="M21.5736 35.3257C21.8779 32.5864 24.744 30.6335 26.139 29.9994L27.2803 66.142L24.2367 62.3375C23.2222 54.4749 21.2692 38.0649 21.5736 35.3257Z" fill="#0F5729" stroke="black"/>
<path d="M31.7758 18.9664H95.0001L94.2152 67.7953L33.3455 76.0336L27.0666 67.7953L25.7585 18.9664H31.7758Z" fill="#1DB954"/>
<path d="M31.7758 18.9664H95.0001L94.2152 67.7953L33.3455 76.0336M31.7758 18.9664L33.3455 76.0336M31.7758 18.9664H25.7585L27.0666 67.7953L33.3455 76.0336M40.2347 26.5181C40.2347 26.5181 38.461 39.103 38.665 47.1996C38.8805 55.7476 41.5428 68.9109 41.5428 68.9109C41.5428 68.9109 56.2059 68.8139 65.5245 67.7953C74.4558 66.819 88.198 63.9336 88.198 63.9336C88.198 63.9336 90.1166 52.254 90.1166 44.711C90.1166 37.168 88.198 25.4883 88.198 25.4883C88.198 25.4883 73.5901 24.1734 64.2164 24.3727C54.8145 24.5727 40.2347 26.5181 40.2347 26.5181Z" stroke="black" stroke-linecap="round"/>
<path d="M38.6648 47.1996C38.4607 39.103 40.2345 26.5181 40.2345 26.5181C40.2345 26.5181 54.8143 24.5727 64.2161 24.3727C73.5898 24.1734 88.1978 25.4883 88.1978 25.4883C88.1978 25.4883 90.1163 37.168 90.1163 44.711C90.1163 52.254 88.1978 63.9336 88.1978 63.9336C88.1978 63.9336 74.4555 66.8191 65.5242 67.7953C56.2057 68.8139 41.5426 68.9109 41.5426 68.9109C41.5426 68.9109 38.8802 55.7476 38.6648 47.1996Z" fill="#20462E" stroke="black" stroke-linecap="round"/>
<path d="M31.7758 18.9664L33.3455 76.0336L27.0666 67.7953L25.7585 18.9664H31.7758Z" fill="#146C33" stroke="black" stroke-linecap="round"/>
<mask id="path-7-outside-1_183_2" maskUnits="userSpaceOnUse" x="49.5662" y="31.6268" width="29" height="30" fill="black">
<rect fill="white" x="49.5662" y="31.6268" width="29" height="30"/>
<path fill-rule="evenodd" clip-rule="evenodd" d="M77.0884 52.2818V32.6268L57.0621 33.5466V54.1772C56.2934 53.8828 55.3875 53.7748 54.445 53.9107C52.0493 54.2562 50.3251 56.0468 50.5938 57.9101C50.8625 59.7734 53.0224 61.0039 55.4181 60.6584C57.8138 60.3129 59.538 58.5223 59.2693 56.659C59.1903 56.1112 58.9478 55.618 58.5839 55.2035V35.0001L75.5666 34.2201V51.2555C74.7979 50.961 73.892 50.853 72.9495 50.9889C70.5538 51.3344 68.8295 53.125 69.0982 54.9883C69.3669 56.8516 71.5269 58.082 73.9226 57.7366C76.3182 57.3911 78.0425 55.6005 77.7738 53.7372C77.6948 53.1894 77.4523 52.6962 77.0884 52.2818Z"/>
</mask>
<path fill-rule="evenodd" clip-rule="evenodd" d="M77.0884 52.2818V32.6268L57.0621 33.5466V54.1772C56.2934 53.8828 55.3875 53.7748 54.445 53.9107C52.0493 54.2562 50.3251 56.0468 50.5938 57.9101C50.8625 59.7734 53.0224 61.0039 55.4181 60.6584C57.8138 60.3129 59.538 58.5223 59.2693 56.659C59.1903 56.1112 58.9478 55.618 58.5839 55.2035V35.0001L75.5666 34.2201V51.2555C74.7979 50.961 73.892 50.853 72.9495 50.9889C70.5538 51.3344 68.8295 53.125 69.0982 54.9883C69.3669 56.8516 71.5269 58.082 73.9226 57.7366C76.3182 57.3911 78.0425 55.6005 77.7738 53.7372C77.6948 53.1894 77.4523 52.6962 77.0884 52.2818Z" fill="white"/>
<path d="M77.0884 32.6268H77.5884V32.1033L77.0655 32.1273L77.0884 32.6268ZM77.0884 52.2818H76.5884V52.4701L76.7127 52.6117L77.0884 52.2818ZM57.0621 33.5466L57.0392 33.0472L56.5621 33.0691V33.5466H57.0621ZM57.0621 54.1772L56.8833 54.6442L57.5621 54.9042V54.1772H57.0621ZM54.445 53.9107L54.3736 53.4158L54.3736 53.4158L54.445 53.9107ZM50.5938 57.9101L50.0989 57.9815L50.0989 57.9815L50.5938 57.9101ZM55.4181 60.6584L55.3467 60.1635L55.3467 60.1635L55.4181 60.6584ZM59.2693 56.659L59.7642 56.5877L59.7642 56.5877L59.2693 56.659ZM58.5839 55.2035H58.0839V55.3919L58.2082 55.5334L58.5839 55.2035ZM58.5839 35.0001L58.561 34.5007L58.0839 34.5226V35.0001H58.5839ZM75.5666 34.2201H76.0666V33.6966L75.5437 33.7206L75.5666 34.2201ZM75.5666 51.2555L75.3878 51.7224L76.0666 51.9824V51.2555H75.5666ZM72.9495 50.9889L73.0209 51.4838L73.0209 51.4838L72.9495 50.9889ZM69.0982 54.9883L69.5931 54.9169L69.5931 54.9169L69.0982 54.9883ZM73.9226 57.7366L73.8512 57.2417L73.8512 57.2417L73.9226 57.7366ZM77.7738 53.7372L77.2789 53.8086L77.2789 53.8086L77.7738 53.7372ZM76.5884 32.6268V52.2818H77.5884V32.6268H76.5884ZM57.085 34.0461L77.1114 33.1262L77.0655 32.1273L57.0392 33.0472L57.085 34.0461ZM57.5621 54.1772V33.5466H56.5621V54.1772H57.5621ZM57.241 53.7103C56.3892 53.384 55.3968 53.2683 54.3736 53.4158L54.5164 54.4056C55.3781 54.2813 56.1977 54.3815 56.8833 54.6442L57.241 53.7103ZM54.3736 53.4158C51.8276 53.783 49.7751 55.7363 50.0989 57.9815L51.0886 57.8387C50.875 56.3573 52.271 54.7294 54.5164 54.4056L54.3736 53.4158ZM50.0989 57.9815C50.4226 60.2266 52.9434 61.5204 55.4894 61.1533L55.3467 60.1635C53.1014 60.4873 51.3023 59.3202 51.0886 57.8387L50.0989 57.9815ZM55.4894 61.1533C58.0355 60.7861 60.088 58.8328 59.7642 56.5877L58.7744 56.7304C58.9881 58.2118 57.592 59.8397 55.3467 60.1635L55.4894 61.1533ZM59.7642 56.5877C59.6701 55.9354 59.3816 55.3542 58.9596 54.8736L58.2082 55.5334C58.514 55.8818 58.7105 56.2869 58.7744 56.7304L59.7642 56.5877ZM58.0839 35.0001V55.2035H59.0839V35.0001H58.0839ZM75.5437 33.7206L58.561 34.5007L58.6068 35.4996L75.5896 34.7195L75.5437 33.7206ZM76.0666 51.2555V34.2201H75.0666V51.2555H76.0666ZM75.7455 50.7885C74.8937 50.4622 73.9013 50.3465 72.8781 50.494L73.0209 51.4838C73.8826 51.3595 74.7022 51.4597 75.3878 51.7224L75.7455 50.7885ZM72.8781 50.494C70.3321 50.8612 68.2796 52.8145 68.6034 55.0596L69.5931 54.9169C69.3795 53.4354 70.7755 51.8076 73.0209 51.4838L72.8781 50.494ZM68.6034 55.0596C68.9271 57.3048 71.4479 58.5986 73.9939 58.2314L73.8512 57.2417C71.6059 57.5655 69.8068 56.3984 69.5931 54.9169L68.6034 55.0596ZM73.9939 58.2314C76.54 57.8643 78.5925 55.911 78.2687 53.6658L77.2789 53.8086C77.4926 55.29 76.0965 56.9179 73.8512 57.2417L73.9939 58.2314ZM78.2687 53.6658C78.1746 53.0137 77.8861 52.4325 77.4642 51.9519L76.7127 52.6117C77.0185 52.96 77.215 53.3651 77.2789 53.8086L78.2687 53.6658Z" fill="black" mask="url(#path-7-outside-1_183_2)"/>
</g>
<defs>
<filter id="filter0_d_183_2" x="17.042" y="14.4664" width="82.4663" height="67.1038" filterUnits="userSpaceOnUse" color-interpolation-filters="sRGB">
<feFlood flood-opacity="0" result="BackgroundImageFix"/>
<feColorMatrix in="SourceAlpha" type="matrix" values="0 0 0 0 0 0 0 0 0 0 0 0 0 0 0 0 0 0 127 0" result="hardAlpha"/>
<feOffset/>
<feGaussianBlur stdDeviation="2"/>
<feComposite in2="hardAlpha" operator="out"/>
<feColorMatrix type="matrix" values="0 0 0 0 0.113725 0 0 0 0 0.72549 0 0 0 0 0.329412 0 0 0 1 0"/>
<feBlend mode="normal" in2="BackgroundImageFix" result="effect1_dropShadow_183_2"/>
<feBlend mode="normal" in="SourceGraphic" in2="effect1_dropShadow_183_2" result="shape"/>
</filter>
</defs>
</svg>
